#!OML:ASF H:\LiuWeirdWalks\Patient Classification 1\Patient 1\Session 1\male.ASF
:FULLY-SPECIFIED
:DEGREES
144
root -1.64219 17.3157 -24.1056 11.2662 6.61527 -4.10613
lowerback 10.9441 1.92882 3.98361
upperback -0.0811463 3.30311 3.5309
thorax -6.22097 1.55336 0.939322
lowerneck -22.513 -0.926863 7.21732
upperneck 16.172 -1.15862 -11.5646
head 8.62756 -1.37656 -5.34721
rclavicle 5.32743e-014 1.27222e-014
rhumerus -21.0298 -7.53768 -79.6149
rradius 29.6395
rwrist -10.5704
rhand -18.3296 -3.67919
rfingers 7.12502
rthumb 7.95228 -33.5096
lclavicle 5.32743e-014 1.27222e-014
lhumerus -44.4858 10.7669 77.0779
lradius 23.4575
lwrist 3.65922
lhand -12.8931 1.45353
lfingers 7.12502
lthumb 13.1962 31.0159
rfemur 5.83175 -2.74227 29.5768
rtibia 22.6826
rfoot -8.35346 -28.5407
rtoes -16.9526
lfemur -48.6845 -1.11037 -15.9547
ltibia 23.1104
lfoot -8.44455 10.4986
ltoes -17.6285
145
root -1.63976 17.2911 -23.9342 11.3439 6.55965 -4.06866
lowerback 10.9406 1.98452 3.74763
upperback 0.0506923 3.3388 3.52515
thorax -6.0915 1.58086 1.06124
lowerneck -22.4575 -1.03545 6.92204
upperneck 15.887 -1.30901 -11.1805
head 8.50992 -1.42199 -5.1676
rclavicle 4.25399e-014 3.10104e-014
rhumerus -20.4183 -7.27179 -79.7168
rradius 30.2393
rwrist -11.0425
rhand -18.6605 -3.52453
rfingers 7.12502
rthumb 7.63288 -33.3668
lclavicle 4.25399e-014 3.10104e-014
lhumerus -44.7889 11.318 76.3864
lradius 22.9202
lwrist 3.02268
lhand -12.7485 1.60243
lfingers 7.12502
lthumb 13.3356 31.1557
rfemur 6.25178 -2.90117 29.434
rtibia 22.774
rfoot -7.81765 -28.0596
rtoes -17.455
lfemur -48.951 -0.995074 -16.1639
ltibia 22.8516
lfoot -8.90379 10.773
ltoes -17.643
146
root -1.63595 17.2654 -23.7545 11.4428 6.50061 -4.02295
lowerback 10.8945 2.04784 3.50908
upperback 0.151891 3.38322 3.50841
thorax -5.97042 1.61187 1.17293
lowerneck -22.4514 -1.20303 6.46434
upperneck 15.6546 -1.52158 -10.6198
head 8.41661 -1.48904 -4.91134
rclavicle 5.96354e-016 -1.59028e-014
rhumerus -19.8957 -7.07434 -79.791
rradius 30.7984
rwrist -11.453
rhand -18.949 -3.29871
rfingers 7.12502
rthumb 7.35437 -33.1509
lclavicle 5.96354e-016 -1.59028e-014
lhumerus -45.1079 11.8854 75.6396
lradius 22.3412
lwrist 2.32884
lhand -12.6306 1.703
lfingers 7.12502
lthumb 13.4493 31.2488
rfemur 6.7788 -3.06173 29.2759
rtibia 22.6654
rfoot -7.2357 -27.5611
rtoes -17.9936
lfemur -49.2347 -0.955569 -16.3053
ltibia 22.9118
lfoot -9.43534 10.9868
ltoes -17.6613
147
root -1.62948 17.2389 -23.5655 11.5551 6.43066 -3.977
lowerback 10.8174 2.12321 3.29589
upperback 0.208666 3.44697 3.47488
thorax -5.87694 1.65047 1.25052
lowerneck -22.5161 -1.42248 5.87182
upperneck 15.5465 -1.78112 -9.93164
head 8.37813 -1.57443 -4.60252
rclavicle -8.54774e-015 -4.29375e-014
rhumerus -19.5135 -6.92159 -79.8434
rradius 31.3589
rwrist -11.8598
rhand -19.2391 -3.14029
rfingers 7.12502
rthumb 7.07432 -33.0021
lclavicle -8.54774e-015 -4.29375e-014
lhumerus -45.4651 12.4595 74.8216
lradius 21.723
lwrist 1.52712
lhand -12.5331 1.7372
lfingers 7.12502
lthumb 13.5433 31.2768
rfemur 7.42064 -3.23041 29.0974
rtibia 22.365
rfoot -6.58663 -27.0215
rtoes -18.5894
lfemur -49.522 -1.01747 -16.3469
ltibia 23.302
lfoot -10.0466 11.1556
ltoes -17.6758
148
root -1.6208 17.2118 -23.368 11.6611 6.33015 -3.95927
lowerback 10.7506 2.21738 3.12182
upperback 0.219811 3.54361 3.43327
thorax -5.83532 1.70294 1.29182
lowerneck -22.5684 -1.66436 5.24688
upperneck 15.4936 -2.0634 -9.20485
head 8.35871 -1.66777 -4.28152
rclavicle -2.98177e-015 -3.4191e-014
rhumerus -19.2957 -6.80205 -79.8703
rradius 31.9373
rwrist -12.254
rhand -19.5064 -3.04299
rfingers 7.12502
rthumb 6.81635 -32.9133
lclavicle -2.98177e-015 -3.4191e-014
lhumerus -45.8598 13.0754 73.9026
lradius 21.0663
lwrist 0.573341
lhand -12.4128 1.746
lfingers 7.12502
lthumb 13.6592 31.2778
rfemur 8.17294 -3.36122 28.9345
rtibia 21.9026
rfoot -5.84349 -26.454
rtoes -19.2317
lfemur -49.7906 -1.18594 -16.233
ltibia 24.0211
lfoot -10.758 11.3232
ltoes -17.7332
149
root -1.60893 17.1842 -23.1611 11.7595 6.20341 -3.94481
lowerback 10.6688 2.32738 2.97852
upperback 0.199195 3.66506 3.37247
thorax -5.81614 1.76601 1.29226
lowerneck -22.6262 -1.88963 4.69365
upperneck 15.5644 -2.32287 -8.55651
head 8.38607 -1.75443 -4.00272
rclavicle -1.2921e-014 -1.19271e-014
rhumerus -19.2309 -6.71979 -79.8808
rradius 32.5326
rwrist -12.6207
rhand -19.7539 -3.01403
rfingers 7.12502
rthumb 6.57741 -32.8919
lclavicle -1.2921e-014 -1.19271e-014
lhumerus -46.2704 13.748 72.8682
lradius 20.3619
lwrist -0.541388
lhand -12.2694 1.7265
lfingers 7.12502
lthumb 13.7974 31.249
rfemur 9.01927 -3.47905 28.7509
rtibia 21.3185
rfoot -4.99999 -25.8455
rtoes -19.9055
lfemur -50.0273 -1.43395 -16.0334
ltibia 25.0539
lfoot -11.5831 11.4596
ltoes -17.7962
